<?xml version="1.0" encoding="UTF-8"?>
<svg id="Layer_2" data-name="Layer 2" xmlns="http://www.w3.org/2000/svg" viewBox="0 0 150 60.59">
  <defs>
    <style>
      .cls-1 {
        fill: #2aace2;
      }

      .cls-2 {
        fill: #fbb040;
      }
    </style>
  </defs>
  <g id="Layer_1-2" data-name="Layer 1">
    <g>
      <path class="cls-1" d="m110.52,25.94C105.24,9.52,88.91-1.97,70.34.28c-16.56,2.01-30.06,15.28-32.33,31.81-1.44,10.48,1.51,20.28,7.3,27.84.32.42.81.66,1.34.66,1.44,0,4.53,0,7.17,0,1.52,0,2.2-1.83,1.11-2.89-3.97-3.9-6.8-8.97-7.96-14.63-.14-.71.43-1.37,1.15-1.37h53.74c.72,0,1.29.67,1.15,1.37-1.14,5.66-3.98,10.73-7.95,14.63-1.08,1.07-.4,2.89,1.12,2.89h7.13c.53,0,1.03-.24,1.35-.66,4.81-6.29,7.66-14.12,7.66-22.6,0-.9-.03-1.8-.12-2.67-.2-3.02-.79-5.96-1.69-8.72Zm-35.53-17.21c14.31,0,26.17,10.53,28.29,24.25,0,0,0,0,0,0h-56.58s0,0,0,0c2.12-13.72,14.01-24.25,28.29-24.25Z"/>
      <g>
        <path class="cls-2" d="m33.77,2.54C34.62,1.53,33.89,0,32.58,0H10.81C10.26,0,9.74.29,9.46.78c-.43.74-.85,1.49-1.23,2.25-.6,1.16-1.17,2.33-1.71,3.51-.46,1.02.32,2.19,1.44,2.19h11.26,0s0,0,0,0c-2.57,4.96-4.49,10.32-5.63,15.96-.15.72-.77,1.25-1.51,1.25H2.17c-.78,0-1.45.58-1.56,1.35-.32,2.34-.52,4.66-.62,6.88v.49h12.36c-.03.9-.06,1.77-.06,2.67,0,3.46.29,6.83.84,10.12.67,4.2,1.76,8.25,3.24,12.13.23.61.83,1.01,1.48,1.01h6.05c1.13,0,1.85-1.15,1.41-2.19-2.77-6.49-4.3-13.61-4.3-21.07,0-.9.03-1.77.06-2.67h11.12c.8,0,1.45-.61,1.52-1.41.18-1.84.48-3.63.89-5.39.23-.99-.47-1.93-1.49-1.93h-8.9c-1.01,0-1.78-.96-1.53-1.94,1.39-5.47,3.61-10.62,6.55-15.28,1.37-2.17,2.88-4.23,4.52-6.19Z"/>
        <path class="cls-2" d="m150,34.16c-.1-2.35-.29-4.68-.61-6.9-.11-.77-.78-1.33-1.56-1.33h-9.91c-.74,0-1.36-.52-1.51-1.25-.97-4.81-2.51-9.41-4.53-13.73-.49-1.04.24-2.23,1.39-2.23h8.76c1.12,0,1.9-1.17,1.44-2.19-.52-1.16-1.08-2.3-1.67-3.42-.39-.78-.82-1.57-1.26-2.34C140.26.29,139.74,0,139.19,0h-21.79c-1.32,0-2.04,1.54-1.19,2.54,1.65,1.95,3.17,4.01,4.54,6.18,2.94,4.66,5.16,9.81,6.55,15.28.25.98-.52,1.94-1.53,1.94h-8.96c-1.01,0-1.72.94-1.49,1.93.41,1.75.71,3.55.89,5.39.08.8.73,1.41,1.52,1.41h11.18c.03.9.06,1.77.06,2.67,0,7.47-1.52,14.58-4.3,21.07-.44,1.04.28,2.19,1.41,2.19h6.05c.65,0,1.25-.4,1.48-1.01,1.48-3.89,2.57-7.96,3.24-12.16.55-3.29.84-6.66.84-10.09,0-.9-.03-1.77-.06-2.67h12.36v-.49Z"/>
      </g>
    </g>
  </g>
</svg>