<?xml version="1.0" encoding="UTF-8"?>
<svg id="Layer_2" data-name="Layer 2" xmlns="http://www.w3.org/2000/svg" viewBox="0 0 113.22 68.03">
  <defs>
    <style>
      .cls-1 {
        fill: #fff;
      }
    </style>
  </defs>
  <g id="Layer_1-2" data-name="Layer 1">
    <g>
      <path class="cls-1" d="m81.81,18.3v8.9l-1.2.74-2.21,1.34-7.43,4.53-3.1,1.89-15.75,9.6c-1.39.83-3.17-.16-3.17-1.78v-8.47c0-1.62-1.78-2.62-3.15-1.78l-31,18.87c-5.09,3.09-11.72,1.47-14.8-3.62L56.29,14.28l.29-.18c.8-.48,1.74-.35,2.38.18.46.37.77.93.77,1.6v8.47c0,1.62,1.78,2.61,3.17,1.78l15.76-9.6c1.38-.83,3.15.16,3.15,1.78Z"/>
      <path class="cls-1" d="m110.05,68.03l-23.03-23.01v-.02h0c-1-1-1.57-2.37-1.57-3.79v-11.55c.22-.08.45-.19.69-.29.13-.05.26-.11.38-.16l7.78,7.76,2.56,2.56,13.19,13.2c4.23,4.23,4.23,11.06,0,15.28Z"/>
      <path class="cls-1" d="m104.04,20.49c-.05,3.83-1.15,7.52-3.23,10.72-2.22,3.02-4.42,4.67-6.51,5.78l-7.78-7.76c1.66-.74,3.31-1.62,4.35-2.7.18-.18.32-.37.45-.54.24-.3.45-.61.62-.91.9-1.49,1.36-3.18,1.34-4.95-.06-5.22-4.47-9.35-9.68-9.35h-45.47c-2.96,0-5.67-1.22-7.63-3.17-1.95-1.94-3.18-4.63-3.22-7.59v-.02h56.19c11.27,0,20.71,9.22,20.57,20.49Z"/>
    </g>
  </g>
</svg>