<?xml version="1.0" encoding="UTF-8"?>
<svg id="Layer_2" data-name="Layer 2" xmlns="http://www.w3.org/2000/svg" viewBox="0 0 112.12 67.37">
  <defs>
    <style>
      .cls-1 {
        fill: #6fccdd;
      }

      .cls-2 {
        fill: #f79420;
      }
    </style>
  </defs>
  <g id="Layer_1-2" data-name="Layer 1">
    <g>
      <path class="cls-2" d="m81.02,18.12v8.81l-1.19.73-2.19,1.33-7.35,4.49-3.07,1.87-15.6,9.51c-1.38.82-3.14-.16-3.14-1.76v-8.38c0-1.6-1.76-2.6-3.12-1.76l-30.7,18.69c-5.04,3.06-11.6,1.46-14.66-3.58L55.74,14.14l.29-.17c.79-.48,1.73-.35,2.36.17.46.36.76.92.76,1.58v8.38c0,1.6,1.76,2.58,3.14,1.76l15.61-9.51c1.36-.82,3.12.16,3.12,1.76Z"/>
      <path class="cls-1" d="m108.98,67.37l-22.81-22.79v-.02h0c-.99-.99-1.55-2.34-1.55-3.75v-11.43c.22-.08.44-.19.68-.29.13-.05.25-.11.38-.16l7.7,7.69,2.54,2.54,13.06,13.08c4.18,4.18,4.18,10.95,0,15.14Z"/>
      <path class="cls-1" d="m103.03,20.29c-.05,3.79-1.14,7.45-3.2,10.62-2.2,3-4.37,4.63-6.45,5.72l-7.7-7.69c1.65-.73,3.28-1.6,4.31-2.68.17-.17.32-.36.44-.54.24-.3.44-.6.62-.9.89-1.47,1.35-3.15,1.33-4.9-.06-5.17-4.42-9.26-9.59-9.26h-45.03c-2.93,0-5.61-1.2-7.56-3.14-1.93-1.92-3.15-4.58-3.19-7.51v-.02h55.65c11.16,0,20.51,9.13,20.37,20.29Z"/>
    </g>
  </g>
</svg>