<?xml version="1.0" encoding="UTF-8"?>
<svg id="Layer_2" data-name="Layer 2" xmlns="http://www.w3.org/2000/svg" viewBox="0 0 233.39 67.37">
  <defs>
    <style>
      .cls-1 {
        fill: #fff;
      }

      .cls-2 {
        fill: #6fccdd;
      }

      .cls-3 {
        fill: #f79420;
      }
    </style>
  </defs>
  <g id="Layer_1-2" data-name="Layer 1">
    <g>
      <g>
        <path class="cls-3" d="m81.02,18.12v8.81l-1.19.73-2.19,1.33-7.35,4.49-3.07,1.87-15.6,9.51c-1.38.82-3.14-.16-3.14-1.76v-8.38c0-1.6-1.76-2.6-3.12-1.76l-30.7,18.69c-5.04,3.06-11.6,1.46-14.66-3.58L55.74,14.14l.29-.17c.79-.48,1.73-.35,2.36.17.46.36.76.92.76,1.58v8.38c0,1.6,1.76,2.58,3.14,1.76l15.61-9.51c1.36-.82,3.12.16,3.12,1.76Z"/>
        <path class="cls-2" d="m108.98,67.37l-22.81-22.79v-.02h0c-.99-.99-1.55-2.34-1.55-3.75v-11.43c.22-.08.44-.19.68-.29.13-.05.25-.11.38-.16l7.7,7.69,2.54,2.54,13.06,13.08c4.18,4.18,4.18,10.95,0,15.14Z"/>
        <path class="cls-2" d="m103.03,20.29c-.05,3.79-1.14,7.45-3.2,10.62-2.2,3-4.37,4.63-6.45,5.72l-7.7-7.69c1.65-.73,3.28-1.6,4.31-2.68.17-.17.32-.36.44-.54.24-.3.44-.6.62-.9.89-1.47,1.35-3.15,1.33-4.9-.06-5.17-4.42-9.26-9.59-9.26h-45.03c-2.93,0-5.61-1.2-7.56-3.14-1.93-1.92-3.15-4.58-3.19-7.51v-.02h55.65c11.16,0,20.51,9.13,20.37,20.29Z"/>
      </g>
      <g>
        <g>
          <path class="cls-1" d="m217.56,48.73l1.8-5.02c.63-1.77,2.06-3.09,3.8-3.62.92-.28,1.9.24,2.22,1.15l7.81,21.76c.76,2.13-.82,4.38-3.08,4.38l-3.11-8.67h0s-1.86-5.17-1.86-5.17c-.78-2.18-3.87-2.18-4.65,0l-.44,1.24-.26.73h0s-.65,1.82-.65,1.82c-.07-2.47-.58-4.93-1.53-7.25-.18-.43-.2-.9-.04-1.34Z"/>
          <path class="cls-1" d="m206.94,43.7c.64-1.77,2.06-3.09,3.8-3.62.92-.28,1.9.24,2.22,1.15l3.65,10.17h0c1.5,4.19,1.5,8.77,0,12.96l-.93-2.59-1.1-3.07-.12-.33-.18-.49-.23-.63-1.34-3.72c-.78-2.18-3.87-2.18-4.65,0l-1.86,5.18h0l-1.54,4.29c-.94,2.63-3.43,4.38-6.23,4.38l8.5-23.67Z"/>
        </g>
        <path class="cls-1" d="m193.58,67.37l-2.24-6.69h-2.8c-2.42,0-4.39-1.96-4.39-4.38h0s5.71,0,5.71,0l-1.09-3.26c-.71-2.14-3.71-2.16-4.48-.07,0,.02-.02.05-.03.07l-1.97,5.91-1.35,4.04c-.43,1.32-1.27,2.41-2.33,3.17-1.07.77-2.37,1.21-3.75,1.21l8.97-26.82c.14-.43.54-.73,1-.73,2.48,0,4.68,1.59,5.47,3.95l6.42,19.21c.72,2.16-.88,4.39-3.15,4.39Z"/>
        <path class="cls-1" d="m169.02,63.06h-5.86c-3.33,0-6.04-2.7-6.04-6.04v-12.89c0-2.38-1.93-4.31-4.31-4.31h0s-11.12,0-11.12,0c-1.94,0-3.87.58-5.37,1.83-1.82,1.52-2.84,3.67-2.84,5.97,0,.04,0,.07,0,.11.02,1.47.45,2.9,1.25,4.13l.03.05.04.05c.29.39.59.75.91,1.05.53.52,1.12.93,1.8,1.27l5.42,2.38c.29.13.59.29.92.6.13.13.27.28.4.46.33.54.52,1.16.52,1.8.01.84-.3,1.66-.88,2.31-.69.78-1.68,1.22-2.71,1.22h-10c-.81,0-1.47-.66-1.47-1.47V.21h-2.15c-1.19,0-2.27.48-3.05,1.26-.78.78-1.26,1.86-1.26,3.05h2.15v58.79c0,2.25,1.82,4.07,4.07,4.07h11.4c1.62,0,3.24-.38,4.59-1.26,2.33-1.52,3.64-4.02,3.61-6.64-.02-1.48-.45-2.91-1.25-4.14l-.03-.05-.04-.05c-.29-.39-.6-.75-.91-1.05-.82-.8-1.63-1.21-2.17-1.45l-5.28-2.31c-.26-.14-.48-.29-.68-.49-.13-.13-.27-.28-.4-.46-.33-.54-.52-1.16-.52-1.8v-.04c0-1.89,1.64-3.49,3.59-3.49h9.98c.8,0,1.45.65,1.45,1.45v11.45c0,5.71,4.63,10.34,10.34,10.34h10.18c0-2.38-1.92-4.31-4.31-4.31Z"/>
      </g>
    </g>
  </g>
</svg>