<?xml version="1.0" encoding="UTF-8"?>
<svg id="Layer_2" data-name="Layer 2" xmlns="http://www.w3.org/2000/svg" viewBox="0 0 150 37.67">
  <defs>
    <style>
      .cls-1 {
        fill: #f58120;
      }

      .cls-2 {
        fill: #faa41a;
      }
    </style>
  </defs>
  <g id="Layer_1-2" data-name="Layer 1">
    <g>
      <polygon class="cls-1" points="89.78 14.15 89.78 37.67 64.91 37.67 64.91 24.71 62.49 26.28 50.34 34.15 44.89 37.67 27.3 26.28 29.72 24.71 32.74 22.77 40.03 18.05 44.89 14.9 50.33 11.38 54.6 8.63 64.91 1.95 67.92 0 81.24 8.63 85.51 11.38 89.78 14.15"/>
      <polygon class="cls-2" points="62.49 26.28 50.34 34.15 44.89 37.67 27.3 26.28 24.88 24.72 24.88 24.71 24.87 24.71 24.88 24.72 24.88 37.67 0 37.67 0 14.15 21.86 0 44.89 14.9 62.49 26.28"/>
      <g>
        <path class="cls-1" d="m98.86,16.14V7.94c0-1.02.31-1.85.92-2.49.62-.64,1.42-.97,2.4-.97,1.17,0,2.06.54,2.69,1.61.38-.58.79-.99,1.23-1.24s.98-.37,1.62-.37c1.02,0,1.8.32,2.35.97.54.64.82,1.57.82,2.78v7.9h-3.38v-7.39c0-.37-.03-.61-.09-.73-.06-.12-.18-.18-.35-.18-.33,0-.5.28-.5.85v7.45h-3.38v-7.39c0-.36-.03-.6-.09-.72-.06-.12-.18-.18-.36-.18-.33,0-.5.3-.5.91v7.39h-3.38Z"/>
        <path class="cls-1" d="m117.32,13.02v3.22c-.26.04-.49.07-.7.07-1.25,0-2.29-.41-3.12-1.23-.83-.82-1.25-1.85-1.25-3.09s.42-2.23,1.26-3.06c.84-.84,1.86-1.26,3.07-1.26,1.34,0,2.4.39,3.18,1.18.77.79,1.16,1.86,1.16,3.22v4.07h-3.11v-3.85c0-.44-.11-.79-.32-1.05-.21-.26-.5-.39-.86-.39-.33,0-.61.12-.85.36-.24.24-.36.52-.36.85,0,.34.11.63.32.85.22.22.49.33.82.33.27,0,.52-.07.76-.22Z"/>
        <path class="cls-1" d="m130.13,16.14h-3.11v-4.69c0-.48-.2-.72-.59-.72s-.58.24-.58.72v4.69h-3.11v-4.63c0-1.08.36-1.99,1.07-2.73.72-.74,1.59-1.11,2.63-1.11,1.19,0,2.14.43,2.86,1.29.56.67.84,1.61.84,2.81v4.38Z"/>
        <path class="cls-1" d="m136.37,12.71v2.86c-.45.17-.88.25-1.29.25-1,0-1.86-.38-2.55-1.14-.7-.76-1.04-1.69-1.04-2.79,0-1.19.42-2.19,1.26-3.01.84-.82,1.87-1.22,3.09-1.22.65,0,1.27.13,1.86.39.59.26,1.06.61,1.4,1.05.57.73.85,1.78.85,3.16v2.73c0,1.48-.42,2.68-1.26,3.61-.84.92-1.94,1.39-3.28,1.39-.41,0-.93-.1-1.56-.31v-2.83c.41.22.82.33,1.23.33.56,0,.99-.18,1.3-.55.31-.37.46-.9.46-1.59v-3.12c0-.87-.35-1.31-1.06-1.31-.3,0-.56.12-.79.35-.22.23-.34.5-.34.79,0,.32.11.58.32.79.21.21.48.32.8.32.21,0,.41-.05.61-.15Z"/>
        <path class="cls-1" d="m145.71,7.66c1.18,0,2.19.42,3.03,1.27.84.85,1.26,1.86,1.26,3.04s-.43,2.22-1.28,3.06c-.85.84-1.88,1.27-3.08,1.27s-2.23-.42-3.09-1.27-1.28-1.87-1.28-3.06.43-2.24,1.28-3.07,1.91-1.24,3.16-1.24Zm-.08,3.07c-.33,0-.62.12-.85.36s-.35.54-.35.89.12.64.35.88.52.37.85.37.62-.12.85-.37c.24-.24.35-.54.35-.88s-.12-.65-.35-.89-.52-.36-.86-.36Z"/>
        <path class="cls-2" d="m98.86,33v-8.19c0-1.02.31-1.85.92-2.49.62-.64,1.42-.97,2.4-.97,1.17,0,2.06.54,2.69,1.61.38-.58.79-.99,1.23-1.24s.98-.37,1.62-.37c1.02,0,1.8.32,2.35.97.54.64.82,1.57.82,2.78v7.9h-3.38v-7.39c0-.37-.03-.61-.09-.73-.06-.12-.18-.18-.35-.18-.33,0-.5.28-.5.85v7.45h-3.38v-7.39c0-.36-.03-.6-.09-.72-.06-.12-.18-.18-.36-.18-.33,0-.5.3-.5.91v7.39h-3.38Z"/>
        <path class="cls-2" d="m117.32,29.89v3.22c-.26.04-.49.07-.7.07-1.25,0-2.29-.41-3.12-1.23-.83-.82-1.25-1.85-1.25-3.09s.42-2.23,1.26-3.06c.84-.84,1.86-1.26,3.07-1.26,1.34,0,2.4.39,3.18,1.18.77.79,1.16,1.86,1.16,3.22v4.07h-3.11v-3.85c0-.44-.11-.79-.32-1.05-.21-.26-.5-.39-.86-.39-.33,0-.61.12-.85.36-.24.24-.36.52-.36.85,0,.34.11.63.32.85.22.22.49.33.82.33.27,0,.52-.07.76-.22Z"/>
        <path class="cls-2" d="m130.13,33h-3.11v-4.69c0-.48-.2-.72-.59-.72s-.58.24-.58.72v4.69h-3.11v-4.63c0-1.08.36-1.99,1.07-2.73.72-.74,1.59-1.11,2.63-1.11,1.19,0,2.14.43,2.86,1.29.56.67.84,1.61.84,2.81v4.38Z"/>
      </g>
    </g>
  </g>
</svg>