<?xml version="1.0" encoding="UTF-8"?>
<svg id="Layer_2" data-name="Layer 2" xmlns="http://www.w3.org/2000/svg" viewBox="0 0 150 80">
  <defs>
    <style>
      .cls-1 {
        fill: #0e395b;
      }

      .cls-2 {
        fill: #e55c5b;
      }
    </style>
  </defs>
  <g id="Layer_1-2" data-name="Layer 1">
    <g>
      <path class="cls-2" d="m149.09,32.32h-50.84c-.5,0-.91.34-.91.76v9.33c0,.42.41.76.91.76h37.87c.5,0,.91.34.91.76v14.77c0,.42-.41.76-.91.76h-37.87c-.5,0-.91.34-.91.76v9.33c0,.42.41.76.91.76h41.64c.24,0,.47-.08.64-.23l9.19-7.68c.17-.14.27-.34.27-.54v-28.79c0-.42-.41-.76-.91-.76Z"/>
      <path class="cls-1" d="m82.51.22c-.17-.14-.4-.22-.64-.22-.16,0-.32.04-.45.1l-19.48,9.36c-.81.39-.48,1.42.45,1.42h13.18c.14,0,.28.03.4.08l2.52,1.05c.31.13.5.39.5.68v13.69c0,.42-.41.76-.91.76h-24.79c-.5,0-.91-.34-.91-.76v-11.07c0-.58-.75-.95-1.35-.67l-11.16,5.24c-.28.14-.46.39-.46.67v24.78c0,.79-1.26,1.06-1.71.36L11.69,5.74c-.24-.37-.8-.51-1.24-.3L.46,10.16c-.29.13-.46.39-.46.66v60.03c0,.22.11.42.3.57l11.11,8.33c.59.44,1.51.09,1.51-.57v-44.16c0-.79,1.25-1.05,1.7-.36l29.27,44.93c.16.24.47.4.8.4h6.8c.5,0,.91-.34.91-.76v-40.47c0-.42.41-.76.91-.76h24.79c.5,0,.91.34.91.76v1.19h0v30.91c0,.22.11.42.3.57l11.16,8.38c.59.44,1.51.09,1.51-.57V8.17s0,0,0,0L82.51.22Z"/>
      <path class="cls-2" d="m98.25,16.06h29.26c.82,0,1.22-.84.63-1.31l-2.02-1.63h0l-9.62-7.73c-.17-.14-.39-.21-.63-.21h-17.62c-.5,0-.91.34-.91.76v9.36c0,.42.41.76.91.76Z"/>
    </g>
  </g>
</svg>