<?xml version="1.0" encoding="UTF-8"?>
<svg id="Layer_2" data-name="Layer 2" xmlns="http://www.w3.org/2000/svg" viewBox="0 0 150 64.23">
  <defs>
    <style>
      .cls-1 {
        fill: #1c768f;
      }

      .cls-2 {
        fill: #032538;
      }
    </style>
  </defs>
  <g id="Layer_1-2" data-name="Layer 1">
    <g>
      <path class="cls-1" d="m29.22,12.3l-.05-.03v39.79l4.31-2.42v-8.35l10.78-6.22v8.32l4.31-2.48v-17.45l-19.36-11.17Zm15.04,17.79l-10.78,6.23v-16.58l10.78,6.23v4.12Z"/>
      <polygon class="cls-2" points="48.55 15.26 48.55 20.24 26.43 7.47 26.43 64.23 1.51 49.92 0 49.06 0 44.08 4.31 46.56 15.1 52.75 19.41 55.23 22.12 56.78 22.12 0 48.55 15.26"/>
      <polygon class="cls-1" points=".03 40.85 .03 23.35 2.9 21.7 15.12 40.07 15.12 14.66 19.38 12.21 19.38 52.02 16.96 50.62 4.34 31.65 4.34 43.34 .03 40.85"/>
      <g>
        <path class="cls-1" d="m62.65,27.41h-1.45c-.09,0-.14-.04-.14-.13v-9.24c0-.07.04-.1.11-.1h2c.08,0,.13.03.17.1,1.95,3.5,3.19,5.82,3.72,6.96h.03c-.04-1.06-.06-1.82-.06-2.27v-4.68c0-.08.04-.11.13-.11h1.45c.09,0,.13.04.13.13v9.21c0,.09-.05.13-.14.13h-1.86c-.09,0-.16-.03-.18-.1-.12-.25-.74-1.41-1.86-3.5-1.11-2.09-1.78-3.41-2-3.96h-.02c.04.5.06,1.4.06,2.69v4.75c0,.09-.03.13-.1.13Z"/>
        <path class="cls-1" d="m73.9,20.36c1.08,0,1.93.34,2.54,1.01.62.67.92,1.53.92,2.56,0,1.12-.32,2-.97,2.65s-1.49.97-2.53.97c-1.15,0-2.02-.35-2.61-1.04s-.9-1.55-.9-2.55.32-1.91.97-2.59c.65-.67,1.5-1.01,2.57-1.01Zm-.07,1.24c-.49,0-.89.21-1.19.62-.3.41-.45.98-.45,1.71s.15,1.31.45,1.73c.3.43.73.64,1.27.64.46,0,.85-.2,1.16-.59.31-.39.47-.98.47-1.76,0-.71-.14-1.28-.43-1.71-.28-.43-.71-.65-1.28-.65Z"/>
        <path class="cls-1" d="m82.21,27.41h-1.71c-.08,0-.12-.03-.14-.1-.79-2.22-1.57-4.45-2.34-6.71-.02-.08,0-.11.08-.11h1.71c.08,0,.12.03.13.1.83,2.76,1.34,4.53,1.52,5.33h.02c.2-.82.73-2.6,1.59-5.33.03-.07.07-.1.13-.1h1.49c.08,0,.11.04.08.13-.14.39-.53,1.47-1.16,3.24-.63,1.77-1.04,2.92-1.24,3.44-.03.08-.08.11-.16.11Z"/>
        <path class="cls-1" d="m91.14,23.13v2.73c0,.41.01.72.04.94,0,.03-.01.05-.04.06-.99.46-2.01.7-3.06.7-.84,0-1.53-.19-2.05-.56-.53-.37-.79-.95-.79-1.71s.3-1.28.89-1.66c.59-.37,1.38-.56,2.37-.56.16,0,.35,0,.55,0s.32,0,.34,0v-.24c0-.15-.03-.3-.08-.45s-.19-.3-.42-.45c-.23-.15-.53-.23-.91-.23-.65,0-1.3.17-1.95.5-.08.04-.11.01-.11-.08v-1.1c0-.08.03-.12.09-.14.66-.34,1.44-.51,2.32-.51.93,0,1.63.25,2.1.76.47.51.71,1.18.71,2.01Zm-1.75,3.03v-1.96c-.17-.04-.44-.06-.8-.06-.51,0-.91.09-1.18.28-.28.19-.41.45-.41.8s.11.6.34.81c.23.21.58.31,1.05.31.37,0,.7-.06.99-.18Z"/>
        <path class="cls-1" d="m98.54,27.56c-.99,0-1.84-.2-2.57-.6-.07-.03-.1-.09-.1-.2v-1.45s.01-.06.04-.08c.02-.01.05,0,.09.02.82.58,1.69.87,2.6.87.57,0,.99-.11,1.25-.32.27-.21.4-.48.4-.8s-.11-.59-.31-.8c-.21-.21-.6-.44-1.16-.69l-.58-.24c-.81-.35-1.38-.74-1.73-1.18-.35-.44-.52-.98-.51-1.62,0-.76.29-1.39.86-1.9.57-.51,1.39-.76,2.45-.76.94,0,1.67.14,2.19.43.07.04.1.1.1.19v1.32c0,.09-.04.11-.13.06-.64-.4-1.38-.6-2.2-.6-.53,0-.92.11-1.16.34-.24.23-.36.47-.36.74,0,.29.1.55.3.75s.59.44,1.16.7l.6.26c.88.38,1.49.79,1.82,1.22s.5.96.5,1.56c0,.86-.32,1.54-.95,2.04s-1.49.75-2.57.75Z"/>
        <path class="cls-1" d="m109.56,20.61v5.24c0,.58.03,1.07.09,1.46,0,.07-.04.1-.11.1h-1.38c-.08,0-.13-.03-.16-.1-.06-.15-.08-.31-.08-.48-.52.48-1.19.73-2,.73-1.6,0-2.4-.9-2.4-2.71v-4.24c0-.08.04-.11.11-.11h1.58c.08,0,.11.04.11.11v4.11c0,.97.39,1.45,1.18,1.45.53,0,.95-.18,1.27-.54v-5.02c0-.08.04-.11.13-.11h1.56c.08,0,.11.04.11.11Z"/>
        <path class="cls-1" d="m111.37,27.28v-5.14c0-.63-.02-1.14-.06-1.53-.02-.08,0-.11.09-.11h1.36c.08,0,.14.04.18.11.05.14.08.33.1.57.58-.54,1.27-.81,2.07-.81.64,0,1.2.22,1.68.65.47.44.71,1.16.71,2.17v4.09c0,.09-.04.13-.11.13h-1.56c-.09,0-.13-.04-.13-.13v-4.13c0-.44-.1-.78-.3-1.02s-.49-.37-.88-.37c-.53,0-.98.21-1.35.63v4.92c0,.08-.04.11-.13.11h-1.56c-.08,0-.11-.04-.11-.13Z"/>
        <path class="cls-1" d="m119.43,17.17h1.59c.08,0,.11.04.11.11v3.34c.46-.17.96-.26,1.48-.26.99,0,1.78.32,2.37.94.6.63.9,1.44.9,2.44,0,1.18-.37,2.12-1.11,2.79-.74.68-1.62,1.02-2.64,1.02s-1.97-.18-2.71-.54c-.06-.03-.09-.08-.09-.14v-9.61c0-.07.03-.1.1-.1Zm4.61,6.75c0-.73-.16-1.28-.49-1.65-.33-.37-.77-.56-1.33-.56-.42,0-.78.08-1.08.23v4.15c.28.15.64.23,1.09.23.5,0,.93-.21,1.28-.62s.53-1,.53-1.77Z"/>
        <path class="cls-1" d="m133.43,20.61v5.24c0,.58.03,1.07.09,1.46,0,.07-.04.1-.11.1h-1.38c-.08,0-.13-.03-.16-.1-.06-.15-.08-.31-.08-.48-.52.48-1.19.73-2,.73-1.6,0-2.4-.9-2.4-2.71v-4.24c0-.08.04-.11.11-.11h1.58c.08,0,.11.04.11.11v4.11c0,.97.39,1.45,1.18,1.45.53,0,.95-.18,1.27-.54v-5.02c0-.08.04-.11.13-.11h1.56c.08,0,.11.04.11.11Z"/>
        <path class="cls-1" d="m135.26,20.49h1.41c.08,0,.13.04.16.13.07.18.12.46.16.84.56-.73,1.32-1.09,2.27-1.09.07,0,.1.03.1.1v1.46c0,.08-.04.11-.11.11-.86-.06-1.55.17-2.06.68-.09.09-.13.2-.13.34v4.24c0,.08-.04.11-.11.11h-1.56c-.09,0-.13-.04-.13-.11v-4.79c0-.74-.02-1.38-.07-1.92,0-.07.02-.1.09-.1Z"/>
        <path class="cls-1" d="m144.59,22.13c-.53-.33-1.08-.5-1.66-.5-.33,0-.58.06-.73.19-.16.12-.23.27-.23.44s.07.32.2.45c.13.13.41.28.84.45.79.3,1.34.62,1.66.96.32.34.48.77.48,1.3,0,.65-.24,1.16-.73,1.56-.49.39-1.15.59-1.98.59s-1.51-.15-2.05-.45c-.06-.02-.09-.07-.09-.14v-1.32s.01-.06.04-.08c.02-.01.05-.01.06,0,.62.45,1.27.68,1.98.68.33,0,.59-.06.76-.18.17-.12.26-.27.26-.46s-.07-.37-.21-.5c-.14-.14-.42-.29-.84-.45-.76-.29-1.29-.61-1.58-.94s-.45-.76-.45-1.27c0-.59.22-1.08.67-1.48s1.08-.6,1.9-.6c.77,0,1.36.1,1.78.31.05.03.07.09.07.19v1.18c0,.11-.04.14-.13.09Z"/>
        <path class="cls-1" d="m150,26.28v.87c0,.09-.03.15-.09.17-.33.16-.77.24-1.31.24-1.26,0-1.89-.67-1.89-2v-3.77h-.87c-.07,0-.1-.04-.1-.13v-1.05c0-.08.04-.11.11-.11h.85c.05-.88.1-1.46.16-1.73.02-.08.06-.12.11-.13l1.52-.2c.07-.02.1,0,.1.07-.04.43-.07,1.09-.09,1.99h1.36c.07,0,.1.04.1.11v1.08c0,.07-.03.1-.09.1h-1.38v3.58c0,.32.06.56.18.7.12.15.32.22.62.22.2,0,.39-.03.58-.1.07-.02.1,0,.1.09Z"/>
      </g>
      <g>
        <path class="cls-2" d="m66.93,41.21h-3.3l-.82,2.49c0,.08-.06.11-.16.11h-1.49c-.09,0-.13-.05-.1-.14l2.96-8.44c.07-.14.11-.41.13-.8,0-.06.03-.09.1-.09h2.05s.08.02.11.07l3.3,9.26c.03.09,0,.13-.09.13h-1.68c-.07,0-.11-.03-.14-.1l-.87-2.5Zm-2.93-1.38h2.56c-.04-.13-.23-.74-.59-1.81-.36-1.08-.59-1.81-.7-2.21h-.01c-.11.48-.53,1.82-1.25,4.02Z"/>
        <path class="cls-2" d="m79.09,36.76c1.13,0,1.99.33,2.59.98s.9,1.48.9,2.47c0,.62-.11,1.17-.33,1.66-.22.49-.52.89-.9,1.18s-.79.52-1.24.67-.92.23-1.41.23c-.37,0-.65-.03-.85-.1v2.93c0,.08-.04.12-.11.13-.15.02-.36.04-.62.06s-.49.05-.68.06c-.19.02-.29.03-.31.03-.06,0-.09-.03-.09-.1v-8.67c0-.3-.02-.59-.06-.85,0-.05.02-.08.06-.09,1.19-.4,2.22-.6,3.07-.6Zm-.19,1.31c-.38,0-.74.06-1.08.17v4.26c.29.13.62.2.98.2.53,0,.98-.21,1.36-.62.37-.41.56-1,.56-1.77,0-.72-.16-1.27-.49-1.66-.33-.39-.77-.58-1.33-.58Z"/>
        <path class="cls-2" d="m92.98,36.76c1.13,0,1.99.33,2.59.98s.9,1.48.9,2.47c0,.62-.11,1.17-.33,1.66-.22.49-.52.89-.9,1.18s-.79.52-1.24.67-.92.23-1.41.23c-.37,0-.65-.03-.85-.1v2.93c0,.08-.04.12-.11.13-.15.02-.36.04-.62.06s-.49.05-.68.06c-.19.02-.29.03-.31.03-.06,0-.09-.03-.09-.1v-8.67c0-.3-.02-.59-.06-.85,0-.05.02-.08.06-.09,1.19-.4,2.22-.6,3.07-.6Zm-.19,1.31c-.38,0-.74.06-1.08.17v4.26c.29.13.62.2.98.2.53,0,.98-.21,1.36-.62.37-.41.56-1,.56-1.77,0-.72-.16-1.27-.49-1.66-.33-.39-.77-.58-1.33-.58Z"/>
        <path class="cls-2" d="m109.97,39.54v2.73c0,.41.01.72.04.94,0,.03-.01.05-.04.06-.99.46-2.01.7-3.06.7-.84,0-1.53-.19-2.05-.56-.53-.37-.79-.95-.79-1.71s.3-1.28.89-1.66c.59-.37,1.38-.56,2.37-.56.16,0,.35,0,.55,0s.32,0,.34,0v-.24c0-.15-.03-.3-.08-.45s-.19-.3-.42-.45c-.23-.15-.53-.23-.91-.23-.65,0-1.3.17-1.95.5-.08.04-.11.01-.11-.08v-1.1c0-.08.03-.12.09-.14.66-.34,1.44-.51,2.32-.51.93,0,1.63.25,2.1.76.47.51.71,1.18.71,2.01Zm-1.75,3.03v-1.96c-.17-.04-.44-.06-.8-.06-.51,0-.91.09-1.18.28-.28.19-.41.45-.41.8s.11.6.34.81c.23.21.58.31,1.05.31.37,0,.7-.06.99-.18Z"/>
        <path class="cls-2" d="m118.92,36.89h1.41c.08,0,.13.04.16.13.07.18.12.46.16.84.56-.73,1.32-1.09,2.27-1.09.07,0,.1.03.1.1v1.46c0,.08-.04.11-.11.11-.86-.06-1.55.17-2.06.68-.09.09-.13.2-.13.34v4.24c0,.08-.04.11-.11.11h-1.56c-.09,0-.13-.04-.13-.11v-4.79c0-.74-.02-1.38-.07-1.92,0-.07.02-.1.09-.1Z"/>
        <path class="cls-2" d="m136.34,40.69h-2.86c0,.58.19,1.04.55,1.39s.87.52,1.56.52,1.26-.12,1.76-.36c.06-.02.09,0,.09.07v1.07c0,.09-.03.14-.09.17-.6.27-1.31.41-2.15.41-.63,0-1.19-.1-1.66-.3s-.84-.47-1.11-.81c-.27-.34-.46-.71-.59-1.11-.13-.4-.19-.84-.19-1.3,0-1.03.3-1.9.9-2.61.6-.71,1.42-1.06,2.47-1.06.99,0,1.72.29,2.22.88s.74,1.27.74,2.06c0,.29-.02.56-.06.81,0,.07-.05.1-.11.11-.27.04-.75.06-1.46.06Zm-2.86-1.11h2.02c.45,0,.7,0,.75-.03,0-.04.01-.1.01-.2,0-.36-.1-.68-.31-.97s-.54-.43-1-.43-.79.15-1.04.46-.4.69-.43,1.16Z"/>
        <path class="cls-2" d="m147.39,42.18v-8.5c0-.08.04-.11.13-.11h1.55c.09,0,.13.04.13.11v8.48c0,.2.04.34.11.41.07.08.18.11.32.11.08,0,.18,0,.31-.03.05,0,.07.03.07.08v.91c0,.09-.03.14-.08.16-.23.09-.54.14-.94.14-.51,0-.91-.13-1.18-.4-.28-.26-.41-.73-.41-1.38Z"/>
      </g>
    </g>
  </g>
</svg>