<?xml version="1.0" encoding="UTF-8"?>
<svg id="Layer_2" data-name="Layer 2" xmlns="http://www.w3.org/2000/svg" viewBox="0 0 150 31.74">
  <defs>
    <style>
      .cls-1 {
        fill: #f89521;
      }
    </style>
  </defs>
  <g id="Layer_1-2" data-name="Layer 1">
    <g>
      <g>
        <g>
          <path class="cls-1" d="m22.2,15.12c-.05.07-.11.14-.18.21.06-.07.12-.14.18-.21Z"/>
          <path class="cls-1" d="m41.1,4.85v4.25h-9.06c-1.18,0-2.24-.48-3.01-1.25-.77-.77-1.25-1.83-1.25-3.01h13.31Z"/>
          <path class="cls-1" d="m45.94,9.11h-4.1v-4.25c1.11.04,2.11.51,2.85,1.24.77.77,1.25,1.83,1.25,3.01Z"/>
          <path class="cls-1" d="m41.1,0v11.32c0,1.05-.43,2-1.12,2.69-.69.69-1.64,1.12-2.69,1.12V3.81c0-2.1,1.71-3.81,3.81-3.81Z"/>
        </g>
        <path class="cls-1" d="m27.23,12.95c-.02,1.51-.46,2.98-1.28,4.24-2.67,3.63-5.25,2.22-6.91,5.18-.02.03-.03.06-.05.08-.08.15-.16.3-.22.46,0,0,0,.02-.01.03-.2.49-.31,1.02-.31,1.58v2.89c0,1.17-.48,2.25-1.25,3.04-.77.79-1.84,1.28-3.02,1.3,0,0,0,0,0,0v-7.14c0-.71.09-1.41.26-2.1.23-.92.62-1.79,1.14-2.58.5-.76,1.12-1.43,1.83-1.99l.12-.1c.05-.04.11-.08.16-.12.24-.17.48-.33.73-.47.02-.01.05-.03.08-.04.37-.2,1.01-.43,1.66-.72.7-.3,1.43-.67,1.87-1.13,0,0,0,0,0,0,.07-.07.13-.14.18-.21.09-.12.17-.24.25-.36.35-.59.53-1.25.53-1.95-.02-2.06-1.76-3.7-3.82-3.7H4.29c-1.17,0-2.24-.48-3.01-1.25C.5,7.09.01,6.03,0,4.86c0,0,0,0,0,0h19.09c4.45,0,8.18,3.64,8.13,8.09Z"/>
      </g>
      <g>
        <g>
          <path class="cls-1" d="m149.79,21.49h-4.31c-.53,0-1.05.16-1.49.46-.16.11-.32.24-.45.38-.33.35-.57.77-.68,1.22-.06.23-.09.48-.09.72,0,.52.15,1.02.43,1.46.47.65.93.84,1.31,1,0,0,.01,0,.02,0,.03.01.06.03.09.04l.06.03.15.06c.16.07.38.18.5.3h0s0,.01,0,.01c.01.01.02.03.03.04.03.04.05.07.07.1.09.15.13.32.13.51,0,.14-.04.28-.1.4-.15.33-.49.55-.87.55h-3.01c-.41,0-.79.16-1.08.46-.29.3-.45.69-.45,1.1v.22s.21,0,.21,0h4.31c.53,0,1.05-.16,1.49-.46.16-.11.32-.24.46-.38.33-.35.57-.76.68-1.21.06-.24.09-.48.09-.73,0-.52-.15-1.02-.43-1.46-.47-.65-.93-.84-1.31-1-.04-.02-.08-.03-.11-.05-.04-.02-.09-.04-.13-.06l-.08-.03c-.16-.07-.38-.18-.5-.3h0s0,0,0,0h0s-.02-.03-.03-.04c-.03-.04-.05-.07-.07-.1-.09-.15-.13-.32-.13-.51,0-.14.03-.28.09-.4.15-.33.49-.55.87-.55h3.01c.4,0,.79-.16,1.08-.46.29-.3.45-.69.45-1.1v-.22s-.21,0-.21,0Z"/>
          <path class="cls-1" d="m89.77,29.43v-7.11c0-.47.38-.85.85-.85h.19c.47,0,.85.38.85.85v5.41c0,.47.38.85.85.85h2.29c.47,0,.85.38.85.85h0c0,.47-.38.85-.85.85h-4.18c-.47,0-.85-.38-.85-.85Z"/>
          <path class="cls-1" d="m118.87,30.37c-.71,0-1.35-.15-1.91-.45-.56-.3-1-.71-1.31-1.23-.32-.52-.48-1.12-.48-1.78v-4.52c0-.51.41-.92.92-.92h.06c.51,0,.92.41.92.92v4.4c0,.35.08.67.24.95.16.28.37.51.65.67.27.17.58.25.91.25s.66-.08.94-.25c.28-.17.5-.39.67-.67.16-.28.25-.6.25-.95v-4.4c0-.51.41-.92.92-.92h0c.51,0,.92.41.92.92v4.52c0,.66-.16,1.26-.47,1.78-.31.53-.75.94-1.31,1.23-.56.3-1.2.45-1.9.45Z"/>
          <path class="cls-1" d="m70.13,22.29c-.5-.52-1.2-.83-1.92-.83h-6.01s0,.22,0,.22c0,.41.16.79.45,1.08.29.29.66.45,1.06.45h4.51c.52,0,.95.42.95.94,0,.18-.04.35-.13.5-.02.03-.04.06-.07.1,0,.01-.02.03-.03.04h0s0,0,0,0h0c-.12.13-.34.23-.49.3l-.2.09c-.13.05-.24.1-.34.16-.08.05-.16.1-.24.16l-.1.07c-.23.19-.44.42-.6.67-.17.27-.3.56-.37.87-.06.23-.09.47-.09.71v2.44s.21,0,.21,0c.4,0,.78-.17,1.06-.47s.44-.69.44-1.1v-.9c0-.14.03-.28.08-.42.02-.04.04-.08.07-.15.21-.38.47-.49.8-.62.37-.15.83-.34,1.29-.98.27-.43.42-.92.42-1.43,0-.71-.26-1.39-.76-1.91Z"/>
        </g>
        <g>
          <path class="cls-1" d="m84.29,1.18v2.62c0,.52-.42.94-.94.94h-1.77c-.52,0-.94-.42-.94-.94V1.18h-1.89v8.81h1.89v-2.59c0-.52.42-.94.94-.94h1.77c.52,0,.94.42.94.94v2.59h1.89V1.18h-1.89Z"/>
          <path class="cls-1" d="m113.3,9.14v-4.56c0-.93-.76-1.7-1.7-1.7h-1.12c-.47,0-.85-.38-.85-.85h0c0-.47.38-.85.85-.85h7.6c.47,0,.85.38.85.85h0c0,.47-.38.85-.85.85h-1.2c-.93,0-1.7.76-1.7,1.7v4.56c0,.47-.38.85-.85.85h-.19c-.47,0-.85-.38-.85-.85Z"/>
          <path class="cls-1" d="m70.13,2.01c-.5-.52-1.2-.83-1.92-.83h-6.01s0,.22,0,.22c0,.41.16.79.45,1.08.29.29.66.45,1.06.45h4.51c.52,0,.95.42.95.94,0,.18-.04.35-.13.5-.02.03-.04.06-.07.1,0,.01-.02.03-.03.04h0s0,0,0,0h0c-.12.13-.34.23-.49.3l-.2.09c-.13.05-.24.1-.34.16-.08.05-.16.1-.24.16l-.1.07c-.23.19-.44.42-.6.67-.17.27-.3.56-.37.87-.06.23-.09.47-.09.71v2.44s.21,0,.21,0c.4,0,.78-.17,1.06-.47s.44-.69.44-1.1v-.9c0-.14.03-.28.08-.42.02-.04.04-.08.07-.15.21-.38.47-.49.8-.62.37-.15.83-.34,1.29-.98.27-.43.42-.92.42-1.43,0-.71-.26-1.39-.76-1.91Z"/>
          <path class="cls-1" d="m149.81,1.18h-.83c-.46,0-.83.37-.83.83v2.41c0,.8-1.02,1.14-1.5.49l-2.52-3.4c-.16-.21-.4-.34-.67-.34h-.44c-.46,0-.83.37-.83.83v7.98h1.02c.46,0,.83-.37.83-.83v-2.34h0c0-.8,1.02-1.14,1.5-.5l2.5,3.34c.16.21.4.33.67.33h.46c.46,0,.83-.37.83-.83V1.18h-.19Z"/>
          <path class="cls-1" d="m98.48,1.18c-2.11,0-3.83,1.71-3.83,3.83v1.21c0,2.08,1.69,3.77,3.77,3.77h0c2.03,0,3.67-1.64,3.67-3.67v-1.53c0-1.99-1.62-3.61-3.61-3.61Zm1.73,5.09c0,1.05-.87,1.89-1.93,1.84-1.01-.04-1.76-.95-1.76-1.96v-1.23c0-1.03.83-1.86,1.86-1.86s1.83.82,1.83,1.83v1.39Z"/>
          <path class="cls-1" d="m130.3,1.18c-2.11,0-3.83,1.71-3.83,3.83v1.21c0,2.08,1.69,3.77,3.77,3.77h0c2.03,0,3.67-1.64,3.67-3.67v-1.53c0-1.99-1.62-3.61-3.61-3.61Zm1.73,5.09c0,1.05-.87,1.89-1.93,1.84-1.01-.04-1.76-.95-1.76-1.96v-1.23c0-1.03.83-1.86,1.86-1.86s1.83.82,1.83,1.83v1.39Z"/>
        </g>
      </g>
    </g>
  </g>
</svg>