<?xml version="1.0" encoding="UTF-8"?>
<svg id="Layer_1" data-name="Layer 1" xmlns="http://www.w3.org/2000/svg" viewBox="0 0 180 100">
  <defs>
    <style>
      .cls-1, .cls-2 {
        fill: #ef7b3e;
      }

      .cls-3 {
        fill: #2e4059;
      }

      .cls-4, .cls-5 {
        fill: #e95555;
      }

      .cls-2, .cls-5 {
        fill-rule: evenodd;
      }
    </style>
  </defs>
  <path class="cls-5" d="m66.04,51.17c-.64,1.36-2.39,2.21-3.35,3.61-.18.26-.35.53-.51.8-1.65,2.73-2.49,5.93-2.95,9.54-.44,3.4-.54,7.17-.66,11.29-3.74-5.5-5.64-15.01-3.27-22.27.57-1.75,1.39-3.38,2.5-4.78,1.33-1.69,2.95-2.49,4.39-3.57.75-.57,1.46-1.21,2.06-2.1,2.21,1.64,3.05,4.81,1.8,7.47Z"/>
  <path class="cls-5" d="m68.1,87.5c-8.3-1.48-9.53-12.19-7.95-21.48.47-2.77,1.18-5.41,2.03-7.65.47-1.25,1-2.38,1.54-3.33-2.34,10.68-.64,25.22,4.38,32.46Z"/>
  <path class="cls-5" d="m66.57,34.09c-1.22,2.24-2.58,4.35-2.33,8.07-.69.53-1.38,1.08-2.06,1.66-2.7,2.3-5.23,5-6.89,8.47-1.71,3.58-2.5,7.97-1.62,13.57-2.3-2.61-3.97-5.34-3.61-10.31.34-4.62,2.56-7.23,5.23-10.06,1.05-1.12,2.17-2.27,3.27-3.59,1.49-1.8,2.66-3.64,3.61-5.58,1.45-2.93,2.42-6.08,3.34-9.62v-.77c.4-.01.74.03,1.04.12.83.24,1.32.82,1.79,1.43.11,2.91-.8,4.81-1.79,6.62Z"/>
  <path class="cls-5" d="m67.09,19.06c.01.98-.19,1.79-.52,2.48-.94,1.95-2.96,3.01-4.38,4.82-.09.11-.18.23-.26.35.08.11.17.18.26.22.75.35,1.93-1.07,2.31-.48-.3,3.13-1.15,5.71-2.31,7.97-1.83,3.56-4.43,6.35-6.89,9.28-2.01,2.4-3.92,4.89-5.23,7.99-.29-3.63.65-6.15,2.06-8.5.83-1.39,2.15-2.53,3.17-3.68.77-.87,1.37-1.75,1.47-2.76.27-2.87-3.38-4.67-3.11-7.08,0-.05.01-.09.02-.14.15-.83.77-1.37,1.62-1.71,1.65-.67,4.17-.61,5.85-.61-.04-1.4.39-2.69,1.04-3.85.7-1.27,1.66-2.39,2.57-3.36-1.33-2.19-4.5-2.54-5.92-4.64-.82,1.36-.69,2.65-.31,3.86.69,2.23,2.16,4.16-.2,5.67,1.12-1.72-.4-3.64-1.36-5.67-.82-1.74-1.22-3.56.84-5.41,3.61-3.23,8.96-.09,9.27,4.9,0,.12.01.24.01.35Z"/>
  <path class="cls-3" d="m32.96,35.36s0,.09,0,.14c0,.08,0,.16.01.24,0-.05,0-.1,0-.15v-.23Z"/>
  <path class="cls-1" d="m53.38,34.24c-.94-1.23-2.11-2.76-1.9-4.78,0-.08.02-.16.03-.24,0-.01,0-.05.01-.06.09-.49.31-1.21.88-1.91-.45-.85-.83-1.55-1.14-2.09-1.84-4.06-3.85-6.1-6.02-6.1h-9.89c.52.58.84,1.35.84,2.19v4.37h2.33c.05,0,.1,0,.15,0h2.69c.4,0,.78.11,1.1.31.01,0,.02.01.03.02.05.03.11.07.16.11,2.17,1.54,3.7,3.51,4.58,5.91.04.06.06.12.07.19.01.04.01.08.01.12,0,.27-.16.51-.4.61h-.03s-6.18,2.54-6.18,2.54l-4.78,1.96s-.08.04-.13.05c-.23.09-.49.14-.75.14-.58,0-1.1-.23-1.48-.62-.33-.32-.55-.76-.6-1.24h0c-.01-.08-.01-.16-.01-.24,0-.05,0-.09,0-.14v-3.14c0-.05,0-.11,0-.15,0-.03,0-.07.01-.1v-.64s0-.1,0-.15v-1.54s-.04,0-.05,0h-5.12c-.84,0-1.6-.32-2.19-.84v9.48c0,.58.23,1.1.62,1.48l5.92,5.73s.02.02.03.03l.28.27s0,0,0,0c.36.29.81.46,1.3.46.29,0,.57-.06.82-.16l18.3-7.21c.28-.29.54-.57.78-.83.38-.43.89-1.05.93-1.52.06-.64-.56-1.45-1.21-2.3Z"/>
  <path class="cls-1" d="m138.15,19.06c-.86.78-1.4,1.9-1.4,3.14v2.16h-10.59c-1.21,0-2.19.98-2.19,2.19v7.38c-.03.31-.17.58-.38.78-.14.15-.32.26-.52.32,0,0,0,0,0,0l-.15.04-.1.03s0,0-.01,0c-.92.24-1.85.51-2.84.81-.11.03-.22.07-.34.11-.07.01-.14.02-.21.02-.27,0-.52-.08-.73-.22h0c-.07-.05-.13-.1-.19-.16-.24-.23-.38-.56-.38-.92v-12.54c0-1.74,1.41-3.14,3.14-3.14h16.89Z"/>
  <path class="cls-1" d="m147.64,28.55v6.38c0,.36-.15.68-.38.92-.23.24-.56.38-.91.38-.09,0-.19-.01-.28-.03,0,0,0,0-.01,0-.11-.05-.23-.09-.34-.13,0,0-.01,0-.01,0-.93-.34-1.86-.65-2.79-.91h-.01c-.1-.03-.2-.06-.3-.08-.08-.03-.16-.08-.23-.12h0c-.07-.05-.13-.1-.19-.16-.24-.23-.38-.56-.38-.92v-3.91h2.72c1.24,0,2.37-.54,3.14-1.4Z"/>
  <path class="cls-1" d="m147.64,44.28v19.68c0,.36-.15.69-.38.92-.24.24-.56.38-.92.38-.17,0-.34-.04-.5-.1,0,0,0,0-.01,0l-.15-.08-8.18-4.19c.39-.79.47-1.68.24-2.53l-.57-2.12c-.04-.16-.1-.31-.16-.46l2.69,1.9c.05.04.1.07.16.1.04.02.08.04.12.06.16.07.33.1.51.1.36,0,.68-.15.92-.38.23-.23.38-.56.38-.92v-14.75c1.87.32,3.53.75,4.95,1.16.52.16.91.66.91,1.24Z"/>
  <g>
    <path class="cls-4" d="m110.69,23.44v5.03c0,.27-.03.52-.07.78-.01.08-.03.15-.05.22-.07.32-.19.63-.33.92-.05.09-.1.19-.15.28-.04.06-.08.12-.11.18-.03.04-.05.07-.07.11-.05.07-.09.13-.15.19-.06.08-.12.16-.19.23,0,0-.01.01-.02.02-.06.07-.12.13-.19.19-.07.07-.15.14-.22.2-.15.13-.31.25-.48.36-.08.05-.17.1-.26.15h0c-.18.1-.36.18-.55.25,0,0-.02,0-.03.01-.08.03-.16.06-.25.08-.01,0-.03.01-.05.01-.09.03-.18.05-.27.07-.1.02-.2.04-.31.05-.09.01-.17.03-.26.03-.04,0-.09.01-.13.01-.08,0-.16,0-.24,0h-2.36v-3.85c0-2.41-1.96-4.37-4.37-4.37h-2.68v-1.18c0-2.42,1.96-4.37,4.37-4.37h5.03c2.42,0,4.37,1.96,4.37,4.37Z"/>
    <path class="cls-4" d="m110.69,23.44v5.03c0,.27-.03.52-.07.78-.01.08-.03.15-.05.22-.07.32-.19.63-.33.92-.05.09-.1.19-.15.28-.04.06-.08.12-.11.18-.03.04-.05.07-.07.11-.05.07-.09.13-.15.19-.06.08-.12.16-.19.23,0,0-.01.01-.02.02-.06.07-.12.13-.19.19-.07.07-.15.14-.22.2-.15.13-.31.25-.48.36-.08.05-.17.1-.26.15h0c-.18.1-.36.18-.55.25,0,0-.02,0-.03.01-.08.03-.16.06-.25.08-.01,0-.03.01-.05.01-.09.03-.18.05-.27.07-.1.02-.2.04-.31.05-.09.01-.17.03-.26.03-.04,0-.09.01-.13.01-.08,0-.16,0-.24,0h-2.36v-3.85c0-2.41-1.96-4.37-4.37-4.37h-2.68v-1.18c0-2.42,1.96-4.37,4.37-4.37h5.03c2.42,0,4.37,1.96,4.37,4.37Z"/>
  </g>
  <path class="cls-1" d="m94.59,52.79v6.97c0,2.42-1.96,4.37-4.38,4.37h-9.85c-2.41,0-4.37-1.96-4.37-4.37v-.38h8.7c2.41,0,4.37-1.96,4.37-4.37v-2.4c0-.41.32-.73.72-.75.05,0,.1,0,.15.01.02,0,.03,0,.05,0,.04,0,.08,0,.12.01,1.14.09,2.33.14,3.53.14h.21c.41,0,.75.33.75.75Z"/>
  <path class="cls-1" d="m110.69,49.17v13.72c0,.36-.15.68-.38.91s-.56.38-.92.38c-.18,0-.35-.04-.51-.1-.04-.02-.08-.04-.12-.06-.04-.02-.08-.05-.12-.08l-.17-.15s-.01-.01-.01-.01l-3.73-3.19c-.05-.04-.1-.08-.15-.13-.24-.23-.38-.56-.38-.92v-7.56c0-.36.15-.68.38-.92.17-.17.38-.29.62-.35.01,0,.03,0,.05-.01.22-.05.44-.1.66-.15.1-.02.2-.04.31-.07.18-.04.35-.08.53-.13.55-.14,1.09-.29,1.63-.44.38-.11.77-.23,1.15-.36.17-.05.34-.11.51-.17.21-.07.43-.15.66-.23Z"/>
  <path class="cls-1" d="m98.01,19.06c-1.33,1-2.19,2.59-2.19,4.37v1.17h-6.52s-2.68.01-2.68.01c-2.41,0-4.37,1.96-4.37,4.37v2.81c0,1.98,1.32,3.65,3.12,4.19.33.1.67.16,1.02.18h6.03c1.21,0,2.19.98,2.19,2.19v5.34c-.07,0-.13.01-.19.02-.98.09-1.95.13-2.88.13h0c-.24,0-.49,0-.73-.01-.55-.01-1.05-.04-1.55-.08-.06,0-.12-.01-.18-.02-.09-1.13-1.03-2.01-2.18-2.01h-4.86s-.01,0-.01-.01c-.13-.07-.25-.14-.37-.22-.47-.28-.9-.59-1.31-.93-.35-.29-.68-.59-.97-.89l-.26-.27s-.08-.09-.12-.14c-.01-.02-.03-.03-.04-.05-.1-.11-.19-.22-.28-.34-.35-.44-.67-.92-.96-1.41l-.16-.3c-.79-1.45-1.33-3.16-1.61-5.09v-.02c0-.19-.01-.36-.02-.54-.01-.34-.01-.65,0-.97.03-2.09.31-3.98.85-5.64.12-.37.25-.73.4-1.08.07-.17.15-.35.23-.52.31-.67.67-1.3,1.09-1.88,0,0,0,0,.01-.01.07-.11.15-.21.23-.31.12-.16.25-.32.38-.47.07-.08.14-.16.21-.24l.26-.28h0c.12-.13.25-.26.38-.38.03-.03.05-.05.08-.08.08-.07.16-.15.24-.21.15-.13.3-.26.46-.38h17.3Z"/>
  <path class="cls-3" d="m108.4,32.31c-.18.1-.36.18-.55.25.19-.07.38-.16.55-.25Z"/>
  <path class="cls-3" d="m109.15,31.8c-.15.13-.31.25-.48.36.17-.11.33-.23.48-.36Z"/>
  <path class="cls-1" d="m110.69,31.75v6.62c0,.36-.15.68-.38.91-.11.11-.25.21-.4.27-.04.02-.09.04-.13.05-1.17.44-2.38.9-3.63,1.33-.26.09-.52.18-.78.27-.53.18-1.05.35-1.58.52h-6.76c-.18,0-.35-.04-.51-.1-.04-.02-.08-.04-.12-.06-.04-.02-.08-.05-.12-.08l-.17-.15s-.01-.01-.01-.01c-.23-.23-.37-.55-.37-.9v-2.07c0-.84-.32-1.6-.84-2.19h4.94c1.54-.08,2.87-.96,3.59-2.23h2.91c.09,0,.18,0,.27,0,.07,0,.14,0,.21-.01.11,0,.21-.02.31-.04.13-.02.26-.04.41-.07.09-.02.17-.04.26-.07.03,0,.11-.03.11-.03.1-.03.2-.06.29-.09l.26-.08.04-.04c.07-.03.13-.06.2-.09h.04l.3-.17c.09-.05.17-.1.24-.14.22-.14.43-.29.62-.45.09-.08.18-.16.27-.24.08-.08.16-.16.22-.23l.05-.06.02-.03c.07-.08.14-.16.19-.24.03-.03.05-.07.08-.1Z"/>
  <path class="cls-3" d="m147.64,22.21v3.51c0,1.74-1.41,3.14-3.14,3.14h-2.72v-2.3c0-1.21-.98-2.19-2.19-2.19h-1.75v-2.16c0-1.74,1.41-3.14,3.14-3.14h3.51c1.74,0,3.14,1.41,3.14,3.14Z"/>
  <path class="cls-4" d="m147.64,22.21v3.51c0,1.74-1.41,3.14-3.14,3.14h-2.72v-2.3c0-1.21-.98-2.19-2.19-2.19h-1.75v-2.16c0-1.74,1.41-3.14,3.14-3.14h3.51c1.74,0,3.14,1.41,3.14,3.14Z"/>
  <path class="cls-4" d="m136.2,60.23c-.27.57-.77,1.01-1.42,1.18l-2.12.57c-1.17.31-2.37-.38-2.68-1.55l-.57-2.12c-.14-.52-.08-1.04.13-1.49.26-.57.77-1.01,1.41-1.18l2.12-.57c1.17-.31,2.37.38,2.68,1.55l.57,2.12c.14.52.08,1.05-.13,1.49Z"/>
  <path class="cls-3" d="m77.38,23.29c.31-.67.67-1.3,1.09-1.88,0,0,0,0,.01-.01-.42.59-.78,1.21-1.1,1.89Z"/>
  <path class="cls-3" d="m79.55,20.1h0c.12-.13.25-.26.38-.38-.13.12-.26.25-.38.38Z"/>
  <path class="cls-4" d="m154.39,42.93c-2.36-.58-4.53-1.27-6.75-1.9-1.87-.53-3.77-1.02-5.86-1.36-2.69-.43-5.68-.62-9.29-.35-2.75.21-5.42.91-8.05,1.83-.16.05-.32.11-.47.17-1.97.72-3.91,1.56-5.86,2.41-2.47,1.09-4.93,2.2-7.42,3.11-.97.36-1.95.69-2.94.98-1.13.33-2.32.63-3.56.89-3.03.64-6.32,1.05-9.58,1.11h-.03c-1.46.03-2.93,0-4.35-.13-.01,0-.03,0-.04,0-.38-.03-.75-.07-1.12-.11,0,0-.01,0-.01,0-1.96-.23-3.84-.61-5.59-1.18-.11-.03-.22-.07-.33-.11-1.4-.5-2.64-1.1-3.76-1.77-2.87-1.71-4.83-3.85-6.15-5.73-.03-.04-.06-.07-.08-.11-.57-.83-1.01-1.6-1.35-2.26-.08-.16-.15-.31-.22-.45-.07-.16-.14-.31-.2-.45-.04-.09-.08-.19-.12-.29,0-.01-.01-.02-.02-.04-.04-.09-.07-.17-.1-.25-.04-.09-.07-.19-.11-.29,0-.02-.01-.03-.02-.05-.03-.08-.06-.16-.08-.24,0-.03-.02-.05-.03-.08-.01-.04-.02-.07-.02-.08h0c-.51-1.51-.77-2.98-.86-4.35-.33-4.72,1.27-8.27,1.27-8.27,1-3.01,2.65-5.54,5.12-7.22,2.41-1.64,5.61-2.45,9.77-2.08-2.19.47-4.08,1.22-5.7,2.25h0c-1.06.67-2,1.46-2.81,2.36h0c-.36.39-.7.81-1,1.25-1.93,2.71-2.92,6.21-2.98,10.36-.01.55,0,1.1.03,1.67,0,.08,0,.15.01.23,0-.01,0-.03,0-.04.32,2.21.94,4.16,1.86,5.83h0c.49.92,1.07,1.75,1.73,2.5.14.16.29.32.43.47h0c.37.39.76.75,1.17,1.09,1.14.94,2.44,1.7,3.9,2.28,1.84.74,3.92,1.2,6.22,1.39,0,0,.01,0,.01,0,.55.05,1.1.08,1.67.09.78.02,1.55.01,2.32-.03.52-.02,1.04-.06,1.55-.11,3.32-.3,6.48-1.05,9.58-2.01,2.19-.68,4.35-1.47,6.49-2.29,2.47-.93,4.93-1.9,7.42-2.76,1.93-.67,3.88-1.28,5.86-1.77.16-.04.31-.08.47-.12,3.32-.78,6.74-1.2,10.36-.98,2.45.15,4.76.53,6.97,1.13,2.01.54,3.95,1.25,5.86,2.12,2.26,1.03,4.49,2.28,6.75,3.71Z"/>
  <path class="cls-2" d="m133.85,53.55c-.07,0-.13-.01-.2-.01-.32,0-.64.04-.95.12l-2.12.57c-1.06.28-1.89,1.01-2.33,1.93l-9.35-4.79s-.08-.04-.12-.06c-.11-.06-.21-.13-.29-.22-.24-.23-.38-.56-.38-.92v-3.2c0-.36.15-.68.38-.92.09-.09.19-.16.3-.22l.17-.08s.02,0,.03-.01c1.6-.7,3.28-1.43,4.98-2.07v2.23c0,.36.15.68.38.92.06.06.12.11.19.16h0l9.31,6.58Z"/>
  <path class="cls-3" d="m35.1,21.25v4.38s-.07,0-.09,0c-1.09.07-1.96.94-2.03,2.03,0,.05,0,.1,0,.15v.74s-.04,0-.05,0h-5.12c-1.21,0-2.19-.98-2.19-2.19v-5.11c0-1.21.98-2.19,2.19-2.19h5.12c1.21,0,2.19.98,2.19,2.19Z"/>
  <path class="cls-4" d="m35.1,21.25v4.38s-.07,0-.09,0c-1.09.07-1.96.94-2.03,2.03,0,.05,0,.1,0,.15v.74s-.04,0-.05,0h-5.12c-1.21,0-2.19-.98-2.19-2.19v-5.11c0-1.21.98-2.19,2.19-2.19h5.12c1.21,0,2.19.98,2.19,2.19Z"/>
</svg>